<svg xmlns="http://www.w3.org/2000/svg">
    <path d="M6.852 6.81c1.656 0 3.007-.955 3.007-2.125S8.512 2.561 6.852 2.561c-1.66 0-3.006.955-3.006 2.124 0 1.17 1.35 2.124 3.006 2.124zm0-3.494c1.206 0 2.203.626 2.203 1.37 0 .743-1.01 1.369-2.203 1.369-1.194 0-2.203-.626-2.203-1.37 0-.743 1.01-1.373 2.203-1.373v.004z"
          class="moda-match-icon--fill"></path>
    <path d="M19.598 8.609h-5.932V4.682c0-2.58-3.06-4.682-6.833-4.682C3.059 0 0 2.101 0 4.682v4.64c0 2.377 2.592 4.338 5.932 4.636h.069c.277.023.558.042.844.042h12.753c.222 0 .402-.169.402-.377V8.986c0-.208-.18-.377-.402-.377zM6.853.759c3.316 0 6.029 1.761 6.029 3.927 0 2.165-2.697 3.927-6.03 3.927C3.522 8.613.825 6.85.825 4.685.824 2.52 3.541.758 6.853.758zm6.029 6.126v1.724H10.55a6.013 6.013 0 002.31-1.724h.02zm6.314 6.36h-.804v-1.909c0-.208-.18-.377-.402-.377-.221 0-.402.17-.402.377v1.913h-1.607v-1.037c0-.209-.18-.378-.402-.378-.222 0-.402.17-.402.378v1.037h-1.608v-1.037c0-.209-.18-.378-.402-.378-.222 0-.402.17-.402.378v1.037h-1.608v-1.913c0-.208-.18-.377-.402-.377-.221 0-.402.17-.402.377v1.913H8.815v-1.037c0-.209-.18-.378-.402-.378-.222 0-.402.17-.402.378v1.037H6.403v-1.037c0-.209-.18-.378-.402-.378-.222 0-.402.17-.402.378v.947C2.886 12.78.844 11.204.844 9.319V6.884c1.15 1.475 3.412 2.478 6.029 2.478h12.323v3.882z"
          class="moda-match-icon--fill"></path>
</svg>