<svg xmlns="http://www.w3.org/2000/svg" viewBox="0 0 199.42 204.86"><path d="M100.56,204.54c-45.8,2-81.23-30.85-93.67-62.67A107.53,107.53,0,0,1-.23,105.71c-.84-25.54,6.38-48.15,22.33-68C38.44,17.26,59.56,4.27,85.43,1c33.3-4.28,62.18,5.81,85.59,30.39,14,14.69,23.29,32,26.41,51.81,2.93,18.55,2.42,37.22-4.56,55.36-10.74,27.91-29.47,47.93-57.05,59.58C124.13,203,111.92,205.82,100.56,204.54Z" transform="translate(0.3 0.01)" style="fill:#f33164"/><path d="M80.27,91.79C82.91,88,85.43,84.18,89,81.12a20,20,0,0,1,7.34-4.32c4.08-1.24,7.27,0,9.73,3.44,2.64,3.73,2.59,8.2,3.55,12.85,2.71-4.1,5-8.07,8.48-11.13,4.25-3.75,9-7,14.79-4.87,5.3,2,5.71,7.46,6.24,12.27.79,7.14-.83,14.08-2.35,21-1,4.48-2.47,8.86-2.59,13.5.72,1.74,0,3.48,0,5.22,1.24,3.63,3.62,2,5.3.8,4.46-3,7-7.62,9.36-12.36.68-1.4.62-4,3.21-3.11,2.36.84,1.86,3.14,1.21,4.82-3.21,8.38-8.19,15.43-16.41,19.58-8.88,4.48-18-.53-20.59-11.1a36.69,36.69,0,0,1,.39-17.73c1.25-5.07,2.48-10.14,3.63-15.23a12.16,12.16,0,0,0,.34-4.06c-.26-2.06-1.55-2.5-3.14-1.16s-2.36,3.17-3.34,4.91c-5.08,9-7.48,18.91-9.86,28.83-.43,1.81-1,3.59-1.58,5.36A15.22,15.22,0,0,1,83,138.41c-2.62-.88-1.5-2.49-1.24-3.83C84.31,121.77,87,109,89.54,96.19a21.08,21.08,0,0,0,.49-3.7c0-1.27.68-3-1.07-3.55-1.57-.46-2.54,1-3.17,2.16-4.56,8.28-8.92,16.67-10.78,26.06-1.06,5.38-2.17,10.75-5,15.56-3,5.16-7,7.08-12.1,6-1.86-.41-3.21-1.14-3.18-3.4.15-15.78-1-31.6,1.4-47.32,0-.12,0-.24,0-.37C58.73,74.18,70,69.9,81.1,78.1a2.14,2.14,0,0,1,.84,3.09,28.44,28.44,0,0,0-2.58,8.91,3.82,3.82,0,0,0-.16,2.19c.12.16-.38.43.09.54A3.48,3.48,0,0,1,80.27,91.79Z" transform="translate(0.3 0.01)" style="fill:#312f3a"/><path d="M53.89,98v39.09h-.37V97.83Z" transform="translate(0.3 0.01)" style="fill:#f83165"/><path d="M134.18,129.08c-.75-1.73-.39-3.47,0-5.22A4.35,4.35,0,0,1,134.18,129.08Z" transform="translate(0.3 0.01)" style="fill:#fe3166"/><path d="M80.27,91.79,79.4,93.9c-1.46.17-1-.74-.82-1.47a3.53,3.53,0,0,1,.78-2.33C79.51,90.75,79.55,91.45,80.27,91.79Z" transform="translate(0.3 0.01)" style="fill:#ca305b"/><path d="M91.18,93.85a4.94,4.94,0,0,1-.2-3.69C91.9,91.48,91.17,92.71,91.18,93.85Z" transform="translate(0.3 0.01)" style="fill:#252f37"/><path d="M78.58,92.43c.16.55.16,1.19.82,1.47-.17.58-.66,1.4-1.08,1C77.54,94.21,78,93.22,78.58,92.43Z" transform="translate(0.3 0.01)" style="fill:#7f304c"/></svg>