<svg xmlns="http://www.w3.org/2000/svg" viewBox="0 0 16 16">
    <defs>
        <clipPath id="a">
            <path style="fill:none" d="M0 0h16v16H0z"/>
        </clipPath>
    </defs>
    <g style="clip-path:url(#a)">
        <path d="M-481-8a.945.945 0 0 1-1-1v-9a.945.945 0 0 1 1-1h2a.945.945 0 0 1 1 1v9a.945.945 0 0 1-1 1zm-6 0a.944.944 0 0 1-1-1v-14a.945.945 0 0 1 1-1h2a.945.945 0 0 1 1 1v14a.944.944 0 0 1-1 1zm-6 0a.945.945 0 0 1-1-1v-4a.945.945 0 0 1 1-1h2a.946.946 0 0 1 1 1v4a.945.945 0 0 1-1 1z" transform="translate(494 24)" class="icon--fill"/>
    </g>
</svg>
